<svg width="429" height="50" viewBox="0 0 429 50" xmlns="http://www.w3.org/2000/svg"><title>Group</title><g fill="none" fill-rule="evenodd"><path fill="#BEA67C" d="M91.639 20.408h122.857v11.224H91.639z"/><path d="M51.256 48.687H40.61L32.36 16.17l-8.178 32.517H13.537L.07 1.332h11.21l8.25 34.22 8.953-34.22h7.826l8.884 34.22 8.178-34.22h11.28L51.257 48.687zm63.675.852c-14.172 0-24.536-10.224-24.536-24.494S100.76.55 114.931.55c14.241 0 24.605 10.224 24.605 24.494s-10.364 24.494-24.605 24.494zm0-8.946c8.672 0 14.312-6.745 14.312-15.548 0-8.875-5.64-15.548-14.312-15.548s-14.242 6.673-14.242 15.548c0 8.803 5.57 15.548 14.242 15.548zm78.62 8.946c-14.17 0-24.534-10.224-24.534-24.494S179.38.55 193.552.55c14.242 0 24.606 10.224 24.606 24.494s-10.364 24.494-24.606 24.494zm0-8.946c8.673 0 14.313-6.745 14.313-15.548 0-8.875-5.64-15.548-14.312-15.548S179.31 16.17 179.31 25.045c0 8.803 5.57 15.548 14.242 15.548zm74.886 8.094h-18.543V1.332h18.543c14.735 0 24.958 9.443 24.958 23.713 0 14.27-10.223 23.642-24.958 23.642zm0-8.875c9.306 0 14.735-6.745 14.735-14.767 0-8.378-5.076-14.838-14.735-14.838h-8.531v29.605h8.53zm90.043 8.875h-33.278V1.332h33.278v8.875h-23.267v10.01h22.773v8.875h-22.773v10.72h23.267v8.875zm70.583 0h-11.492l-9.236-16.826h-7.332v16.826h-10.011V1.332h21.997c9.8 0 15.792 6.46 15.792 15.264 0 8.378-5.217 12.85-10.293 14.058l10.575 18.033zm-17.555-25.701c4.019 0 7.05-2.414 7.05-6.39 0-3.976-3.031-6.39-7.05-6.39h-10.505v12.78h10.505z" fill="#FFF"/></g></svg>