<svg xmlns="http://www.w3.org/2000/svg" xmlns:xlink="http://www.w3.org/1999/xlink"><defs><path d="M0 9.008C0 4.033 4.024 0 8.997 0h3.006A8.994 8.994 0 0 1 21 9.008V21c0 5.523-4.48 10-10.008 10h-.984C4.481 31 0 26.525 0 21V9.007z" id="a"/><mask id="c" x="0" y="0" width="21" height="31"><use xlink:href="#a"/></mask><rect id="b" x="8" y="3" width="5" height="8" rx="2.5"/><mask id="d" x="0" y="0" width="5" height="8"><use xlink:href="#b"/></mask></defs><symbol id="icon-arrow-button" viewBox="0 0 33 7"><title>arrow-button</title><path d="M.5 3.5h31m1 0l-3-3m0 6l3-3" fill="none"/></symbol><symbol id="icon-arrow-mouse" viewBox="0 0 7 74"><title>arrow-mouse</title><path d="M3.5.5v72m0 1l3-3m-6 0l3 3" fill="none"/></symbol><symbol id="icon-arrow" viewBox="0 0 17 12"><title>arrow</title><path d="M.865 2.356C-.165 1.055.336 0 2 0h13c1.657 0 2.165 1.054 1.134 2.356l-6.393 8.075c-.686.867-1.794.872-2.484 0L.865 2.356z" fill-rule="evenodd"/></symbol><symbol id="icon-mouse" viewBox="0 0 21 31"><title>mouse</title><g fill-rule="evenodd"><use mask="url(#c)" xlink:href="#a"/><path d="M10.5.5V3m0 7v3.5V10z"/><use mask="url(#d)" xlink:href="#b"/></g></symbol><symbol id="icon-play" viewBox="0 0 12 17"><title>arrow</title><path d="M3.215 15.944c-1.301 1.03-2.356.53-2.356-1.135v-13C.859.152 1.913-.356 3.215.675l8.075 6.393c.866.686.872 1.794 0 2.484l-8.075 6.392z" fill-rule="evenodd"/></symbol><symbol id="icon-play2" viewBox="0 0 30.051 30.051"><path d="M19.982 14.438l-6.24-4.536a.752.752 0 0 0-1.195.607v9.069a.75.75 0 0 0 1.195.606l6.24-4.532a.747.747 0 0 0 0-1.214z"/><path d="M15.026.002C6.726.002 0 6.728 0 15.028c0 8.297 6.726 15.021 15.026 15.021 8.298 0 15.025-6.725 15.025-15.021.001-8.3-6.727-15.026-15.025-15.026zm0 27.54c-6.912 0-12.516-5.601-12.516-12.514 0-6.91 5.604-12.518 12.516-12.518 6.911 0 12.514 5.607 12.514 12.518.001 6.913-5.603 12.514-12.514 12.514z"/></symbol></svg>