<?xml version="1.0" encoding="UTF-8"?>
<svg width="21px" height="31px" viewBox="0 0 21 31" version="1.1" xmlns="http://www.w3.org/2000/svg" xmlns:xlink="http://www.w3.org/1999/xlink">
    <!-- Generator: Sketch 42 (36781) - http://www.bohemiancoding.com/sketch -->
    <title>mouse</title>
    <desc>Created with Sketch.</desc>
    <defs>
        <path d="M0,9.00812582 C0,4.03307531 4.02416382,0 8.99727769,0 L12.0027223,0 C16.9717816,0 21,4.02092795 21,9.00812582 L21,20.9993884 C21,26.5225737 16.5207309,31 10.9920273,31 L10.0079727,31 C4.48072201,31 0,26.5254411 0,20.9993884 L0,9.00812582 Z" id="path-1"></path>
        <mask id="mask-2" maskContentUnits="userSpaceOnUse" maskUnits="objectBoundingBox" x="0" y="0" width="21" height="31" fill="white">
            <use xlink:href="#path-1"></use>
        </mask>
        <rect id="path-3" x="8" y="3" width="5" height="8" rx="2.5"></rect>
        <mask id="mask-4" maskContentUnits="userSpaceOnUse" maskUnits="objectBoundingBox" x="0" y="0" width="5" height="8" fill="white">
            <use xlink:href="#path-3"></use>
        </mask>
    </defs>
    <g id="Page-1" stroke="none" stroke-width="1" fill="none" fill-rule="evenodd">
        <g id="Desktop-HD" transform="translate(-757.000000, -425.000000)" stroke="#000000">
            <g id="mouse" transform="translate(757.000000, 425.000000)">
                <use id="Rectangle-3" mask="url(#mask-2)" stroke-width="2" xlink:href="#path-1"></use>
                <path d="M10.5,0.5 L10.5,3" id="Line" stroke-linecap="square"></path>
                <path d="M10.5,10 L10.5,13.5 L10.5,10 Z" id="Line" stroke-linecap="square"></path>
                <use id="Rectangle-4" mask="url(#mask-4)" stroke-width="2" xlink:href="#path-3"></use>
            </g>
        </g>
    </g>
</svg>