<?xml version="1.0" encoding="UTF-8"?>
<svg width="429px" height="50px" viewBox="0 0 429 50" version="1.1" xmlns="http://www.w3.org/2000/svg" xmlns:xlink="http://www.w3.org/1999/xlink">
    <!-- Generator: Sketch 42 (36781) - http://www.bohemiancoding.com/sketch -->
    <title>Group</title>
    <desc>Created with Sketch.</desc>
    <defs></defs>
    <g id="Page-1" stroke="none" stroke-width="1" fill="none" fill-rule="evenodd">
        <g id="Desktop-HD" transform="translate(-537.000000, -509.000000)">
            <g id="Group" transform="translate(537.000000, 509.000000)">
                <rect id="Rectangle-2" fill="#BEA67C" x="91.6393443" y="20.4081633" width="122.857143" height="11.2244898"></rect>
                <path d="M51.2559516,48.6867035 L40.60994,48.6867035 L32.3610436,16.1702686 L24.1826506,48.6867035 L13.5366389,48.6867035 L0.0704918033,1.33198282 L11.2805305,1.33198282 L19.5294269,35.5523357 L28.4833572,1.33198282 L36.3092333,1.33198282 L45.1926602,35.5523357 L53.3710532,1.33198282 L64.6515954,1.33198282 L51.2559516,48.6867035 Z M114.930583,49.5386625 C100.759402,49.5386625 90.3954042,39.3151546 90.3954042,25.0448415 C90.3954042,10.7745283 100.759402,0.551020408 114.930583,0.551020408 C129.172268,0.551020408 139.536266,10.7745283 139.536266,25.0448415 C139.536266,39.3151546 129.172268,49.5386625 114.930583,49.5386625 Z M114.930583,40.5930931 C123.6025,40.5930931 129.242771,33.8484177 129.242771,25.0448415 C129.242771,16.1702686 123.6025,9.49658983 114.930583,9.49658983 C106.258667,9.49658983 100.688899,16.1702686 100.688899,25.0448415 C100.688899,33.8484177 106.258667,40.5930931 114.930583,40.5930931 Z M193.551933,49.5386625 C179.380752,49.5386625 169.016754,39.3151546 169.016754,25.0448415 C169.016754,10.7745283 179.380752,0.551020408 193.551933,0.551020408 C207.793618,0.551020408 218.157616,10.7745283 218.157616,25.0448415 C218.157616,39.3151546 207.793618,49.5386625 193.551933,49.5386625 Z M193.551933,40.5930931 C202.22385,40.5930931 207.864121,33.8484177 207.864121,25.0448415 C207.864121,16.1702686 202.22385,9.49658983 193.551933,9.49658983 C184.880016,9.49658983 179.310249,16.1702686 179.310249,25.0448415 C179.310249,33.8484177 184.880016,40.5930931 193.551933,40.5930931 Z M268.436604,48.6867035 L249.894212,48.6867035 L249.894212,1.33198282 L268.436604,1.33198282 C283.171812,1.33198282 293.394803,10.7745283 293.394803,25.0448415 C293.394803,39.3151546 283.171812,48.6867035 268.436604,48.6867035 Z M268.436604,39.8121307 C277.743051,39.8121307 283.171812,33.0674553 283.171812,25.0448415 C283.171812,16.6672447 278.095568,10.2065557 268.436604,10.2065557 L259.905694,10.2065557 L259.905694,39.8121307 L268.436604,39.8121307 Z M358.479502,48.6867035 L325.201903,48.6867035 L325.201903,1.33198282 L358.479502,1.33198282 L358.479502,10.2065557 L335.213384,10.2065557 L335.213384,20.2170738 L357.985979,20.2170738 L357.985979,29.0916467 L335.213384,29.0916467 L335.213384,39.8121307 L358.479502,39.8121307 L358.479502,48.6867035 Z M429.063466,48.6867035 L417.571414,48.6867035 L408.33547,31.8605134 L401.003118,31.8605134 L401.003118,48.6867035 L390.991636,48.6867035 L390.991636,1.33198282 L412.988694,1.33198282 C422.788664,1.33198282 428.781452,7.79267185 428.781452,16.5962481 C428.781452,24.9738449 423.564202,29.4466296 418.487958,30.6535715 L429.063466,48.6867035 Z M411.508122,22.9859406 C415.526816,22.9859406 418.558461,20.5720567 418.558461,16.5962481 C418.558461,12.6204395 415.526816,10.2065557 411.508122,10.2065557 L401.003118,10.2065557 L401.003118,22.9859406 L411.508122,22.9859406 Z" id="WOODER" fill="#FFFFFF"></path>
            </g>
        </g>
    </g>
</svg>